<svg width="128" height="128" viewBox="0 0 128 128" fill="none" xmlns="http://www.w3.org/2000/svg">
<path d="M49.7972 0.0152083L76.6783 0C82.7686 10.7237 87.9033 22.0253 92.282 33.6209C94.0334 37.9286 95.8033 42.237 97.224 46.6803C99.3506 53.1888 102.032 59.4831 104.065 66.0289C108.06 79.8063 111.589 93.7288 115.137 107.637C116.46 113.176 118.292 118.561 119.485 124.133C117.604 124.771 115.714 125.387 113.837 126.044C111.728 126.743 109.489 126.673 107.304 126.869C104.177 127.186 101.036 127.391 97.9033 127.671L90.3607 122.244C90.0166 119.74 90.0704 117.18 89.6186 114.686C88.3367 106.69 86.3254 98.8387 84.0378 91.0946L42.0981 97.1696C41.785 98.9274 41.4593 100.69 41.1412 102.452C39.7389 108.699 40.0918 115.171 39.7161 121.535L30.1362 127.704C29.5196 128.198 28.7155 127.927 28.0134 127.918C25.6453 127.671 23.264 127.68 20.9048 127.382C18.5006 127.07 15.9266 127.517 13.679 126.38C11.7982 125.466 9.85857 124.683 8 123.717C10.1406 113.101 12.987 102.653 15.7613 92.1997C19.1888 79.1587 23.2906 66.323 27.5134 53.5436C33.4294 35.0707 40.9454 17.158 49.7972 0.0139404V0.0152083ZM61.4461 37.6536C57.9564 48.2189 53.9167 58.5693 50.1812 69.0414L72.4872 56.2197C70.3156 49.9019 68.1263 43.5937 65.8292 37.3273C65.3919 36.269 64.9534 34.9028 63.7469 34.6044C62.3129 34.7818 61.8928 36.4648 61.4461 37.6536Z" fill="#BF2223"/>
</svg>
