<svg width="128" height="128" viewBox="0 0 128 128" fill="none" xmlns="http://www.w3.org/2000/svg">
<g clip-path="url(#clip0_201_2)">
<path d="M66.457 0.0139992C65.3038 -0.0621267 64.1519 0.180021 63.1269 0.714007C62.102 1.24799 61.2435 2.05329 60.645 3.042L12.775 81.114C12.1513 82.1308 11.8252 83.3021 11.8337 84.4949C11.8421 85.6877 12.1849 86.8542 12.823 87.862L36.391 125.048C37.1386 126.22 38.248 127.116 39.5511 127.6C40.8541 128.085 42.2795 128.13 43.611 127.731L111.623 107.324C112.497 107.062 113.304 106.617 113.99 106.016C114.676 105.416 115.226 104.675 115.601 103.844C115.977 103.013 116.169 102.111 116.166 101.2C116.163 100.288 115.964 99.3873 115.583 98.559L71.863 3.709C71.3876 2.65709 70.6321 1.75609 69.6793 1.10444C68.7264 0.4528 67.6128 0.0755804 66.46 0.0139992H66.457ZM68.252 23.964C68.7605 23.9032 69.2749 24.0103 69.7169 24.2691C70.1588 24.5278 70.5041 24.9239 70.7 25.397L100.86 95.181C100.994 95.4911 101.061 95.8262 101.057 96.1642C101.052 96.5021 100.976 96.8352 100.833 97.1415C100.69 97.4478 100.484 97.7203 100.228 97.941C99.9719 98.1618 99.672 98.3257 99.348 98.422L52.352 112.446C51.9571 112.563 51.5386 112.577 51.1371 112.484C50.7356 112.392 50.3647 112.198 50.0604 111.92C49.7561 111.642 49.5288 111.291 49.4005 110.899C49.2722 110.508 49.2472 110.09 49.328 109.686L66.158 25.874C66.2523 25.3706 66.5083 24.9117 66.8872 24.5669C67.266 24.2222 67.747 24.0105 68.257 23.964H68.252Z" fill="#2D3748"/>
</g>
<defs>
<clipPath id="clip0_201_2">
<rect width="128" height="128" fill="white"/>
</clipPath>
</defs>
</svg>
