<svg width="128" height="128" viewBox="0 0 128 128" fill="none" xmlns="http://www.w3.org/2000/svg">
<g clip-path="url(#clip0_201_37)">
<path d="M73.1429 64C73.1429 65.8083 72.6066 67.576 71.602 69.0795C70.5974 70.5831 69.1695 71.7549 67.4988 72.4469C65.8282 73.1389 63.9899 73.32 62.2163 72.9672C60.4428 72.6144 58.8137 71.7436 57.535 70.465C56.2564 69.1863 55.3856 67.5572 55.0328 65.7837C54.68 64.0102 54.8611 62.1718 55.5531 60.5012C56.2451 58.8306 57.417 57.4026 58.9205 56.398C60.424 55.3934 62.1917 54.8572 64 54.8572C66.4248 54.8572 68.7504 55.8204 70.465 57.535C72.1796 59.2497 73.1429 61.5752 73.1429 64ZM64 111.634C68.027 111.625 72.0364 111.102 75.9314 110.08V97.6914C80.0297 96.3052 83.8407 94.1828 87.1771 91.4286C85.8497 86.5226 83.6846 81.8829 80.7771 77.7143C74.6256 89.2315 64.4083 98.0474 52.1143 102.446V110.263C56.0031 111.216 59.9963 111.677 64 111.634ZM105.143 40.2286C103.12 36.7461 100.663 33.5355 97.8286 30.6743L87.0857 36.8914C83.7779 34.0649 79.9826 31.8651 75.8857 30.4C72.2915 33.9925 69.3521 38.185 67.2 42.7886C80.254 42.3551 93.0006 46.805 102.949 55.2686L109.714 51.3372C108.671 47.4543 107.135 43.7211 105.143 40.2286ZM22.8571 40.2286C20.8621 43.7195 19.3256 47.4532 18.2857 51.3372L29.0286 57.5543C28.2407 61.8307 28.2407 66.215 29.0286 70.4914C33.9275 71.7998 39.0163 72.2484 44.0686 71.8172C37.1564 60.728 34.6298 47.4591 36.9829 34.6057L30.1257 30.72C27.309 33.5681 24.8665 36.7633 22.8571 40.2286Z" fill="#050A14"/>
<path d="M105.143 87.8629C107.138 84.3719 108.674 80.6383 109.714 76.7543L99.0171 70.5372C99.805 66.2608 99.805 61.8764 99.0171 57.6C94.1182 56.2917 89.0294 55.8431 83.9771 56.2743C91.0158 67.3143 93.6736 80.5867 91.4286 93.4858L98.1943 97.3715C100.9 94.5055 103.234 91.311 105.143 87.8629ZM22.8571 87.8629C24.8795 91.3454 27.3374 94.556 30.1714 97.4172L40.9143 91.2C44.2221 94.0266 48.0174 96.2263 52.1143 97.6915C55.7085 94.0989 58.6479 89.9065 60.8 85.3029C47.746 85.7364 34.9994 81.2865 25.0514 72.8229L18.2857 76.7086C19.3268 80.6067 20.8631 84.3554 22.8571 87.8629ZM64 16.4115C59.973 16.4207 55.9636 16.943 52.0686 17.9657V30.3543C47.9568 31.7959 44.145 33.9807 40.8229 36.8C42.1503 41.706 44.3154 46.3457 47.2229 50.5143C53.3744 38.9971 63.5917 30.1812 75.8857 25.7829V18.0115C72.0069 16.98 68.0135 16.4424 64 16.4115Z" fill="#00B4FF"/>
<path d="M64 8.27429C75.0344 8.26524 85.8236 11.5297 95.0021 17.6544C104.181 23.7792 111.336 32.489 115.563 42.6818C119.79 52.8746 120.898 64.0921 118.748 74.915C116.597 85.7378 111.285 95.6795 103.482 103.482C95.6795 111.285 85.7378 116.597 74.915 118.748C64.0921 120.898 52.8746 119.79 42.6818 115.563C32.489 111.336 23.7792 104.181 17.6544 95.0021C11.5297 85.8236 8.26524 75.0344 8.27429 64C8.3105 49.2318 14.1932 35.0787 24.636 24.636C35.0787 14.1932 49.2318 8.3105 64 8.27429ZM64 0C47.0261 0 30.7475 6.74284 18.7452 18.7452C6.74284 30.7475 0 47.0261 0 64C0 80.9739 6.74284 97.2525 18.7452 109.255C30.7475 121.257 47.0261 128 64 128C80.9739 128 97.2525 121.257 109.255 109.255C121.257 97.2525 128 80.9739 128 64C128 47.0261 121.257 30.7475 109.255 18.7452C97.2525 6.74284 80.9739 0 64 0Z" fill="#00B4FF"/>
</g>
<defs>
<clipPath id="clip0_201_37">
<rect width="128" height="128" fill="white"/>
</clipPath>
</defs>
</svg>
