<svg width="128" height="128" viewBox="0 0 128 128" fill="none" xmlns="http://www.w3.org/2000/svg">
<path d="M5 48.144L46.1573 71.76L46.1253 78.8L22.712 65.3707L7.976 73.744L46.0987 95.7173L46.1253 102.491L5.28267 78.9973C5.38933 81.7493 7.88533 90.2293 12.6587 96.7947C17.512 103.445 23.0373 106.267 23.0373 106.267L60.7867 128V63.1947L5.03733 31.1787L5 48.144ZM122.675 27.8773L81.0107 3.856C81.0107 3.856 74.408 0 63.88 0C52.9147 0 46.5573 3.97867 46.5573 3.97867L7.96533 26.0587L66.68 59.808V128L105.32 105.941C105.32 105.941 112.227 102.128 117.475 93.0667C122.099 85.088 122.675 77.3707 122.675 77.3707V27.8773ZM59.8427 38.976C59.8427 38.976 68.456 37.3867 75.736 41.5893L87.3147 48.256C87.3147 48.256 87.3307 54.1067 87.3307 62.848C87.3307 69.8507 81.4 77.1093 81.4 77.1093L81.4107 51.424L59.8427 38.976ZM93.9867 95.3067L81.4107 102.523V95.7547L91.1973 90.1547C100.52 83.4347 102.061 73.5307 102.061 70.096L102.024 39.6693L75.3253 24.304C75.3253 24.304 71.272 21.6427 63.9707 21.6427C56.68 21.6427 52.7013 24.1013 52.7013 24.1013L43.3253 29.4933L37.4053 26.0747L50.36 18.6667C50.36 18.6667 55.4267 15.856 63.928 15.856C71.7253 15.856 77.7947 18.9013 77.7947 18.9013L107.944 36.32L107.907 69.5253C108.12 74.6293 105.741 87.0987 93.9867 95.3067Z" fill="#005F9E"/>
</svg>
