<svg width="128" height="128" viewBox="0 0 128 128" fill="none" xmlns="http://www.w3.org/2000/svg">
<path d="M63.6519 128L115.354 98.1449L95.5368 86.684L75.2757 98.3882C75.1032 98.4829 74.9094 98.5319 74.7126 98.5304C74.5158 98.5288 74.3227 98.4769 74.1517 98.3795C73.9808 98.2799 73.8387 98.1377 73.7391 97.9667C73.6396 97.7958 73.586 97.602 73.5837 97.4042V69.6083C73.5837 68.7894 74.0072 68.0476 74.7164 67.6404L98.7916 53.737C98.9631 53.6391 99.1574 53.5883 99.3548 53.5899C99.5522 53.5914 99.7457 53.6451 99.9157 53.7457C100.268 53.9411 100.488 54.3104 100.491 54.7122V78.1087L120.321 89.5631V29.8551L63.6519 62.5664V128Z" fill="black"/>
<path d="M52.0574 98.4012L31.7876 86.6829L11.9556 98.1427L63.6519 128V62.5664L7 29.854V89.5598L26.8245 78.1097V54.7144C26.8332 54.3126 27.0493 53.9433 27.3968 53.7478C27.5677 53.6474 27.7621 53.5937 27.9604 53.5922C28.1586 53.5906 28.3538 53.6413 28.5263 53.7391L52.6134 67.6404C52.9582 67.8406 53.2443 68.1278 53.4431 68.4734C53.6419 68.819 53.7464 69.2107 53.7462 69.6094V97.4097C53.7418 97.8115 53.529 98.1808 53.1814 98.3893C52.8382 98.5934 52.4104 98.5956 52.0574 98.4012Z" fill="#4D4D4D"/>
<path d="M68.6194 0V22.9001L88.8816 34.5967C89.2291 34.7998 89.4365 35.1734 89.4365 35.5807C89.4365 35.9836 89.2247 36.3528 88.8816 36.5559L64.7977 50.468C64.4516 50.6641 64.0605 50.7672 63.6628 50.7672C63.265 50.7672 62.874 50.6641 62.5278 50.468L38.4516 36.5559C38.2806 36.4571 38.1387 36.3148 38.0403 36.1436C37.9419 35.9723 37.8905 35.7782 37.8912 35.5807C37.8895 35.3818 37.9404 35.186 38.0388 35.0132C38.1373 34.8404 38.2797 34.6967 38.4516 34.5967L58.7083 22.9001V0L7 29.8551L63.6519 62.5664L120.317 29.8551L68.6194 0Z" fill="#808080"/>
</svg>
